<svg version="1.1" id="Layer_1" xmlns="http://www.w3.org/2000/svg" x="0" y="0" viewBox="0 0 350.7 114" xml:space="preserve"><path fill="#FFF" d="M318.7 114c-1.8.2-3.5-.8-4.3-2.4-2.8-5.4-9.3-18.4-12.3-26.8-3.9-10.9-5.6-24.5-7.4-22.1-3.6 4.9 4 13.8 5 19.3 1.2 6.4 6.5 21.2-5.8 27.7-11 5.8-18.2-3.3-20.2-4.8-1.9-1.6-4.3-7.6-4.3-7.6s-11.6 1.2-17.1-7.4-1.4-21.3 12.2-25.9c13.6-4.7 22.7-4.9 22.7-6.4s-.4-2.5-4.7-1.4c-4.3 1.2-16.9 7.2-26.6 6.4-9.7-.8-16.7-3.3-15.1-17.3 1.5-13.6 12.2-15.5 12.2-15.5s-3.1-14.7 10.1-20.6c13.2-5.8 20.8 9.9 21.9 14.5s3.4 25.2 8 25.4c3.3.1-5.9-20.4-4.2-33.4 1.9-14.3 7.3-17.5 19-14.9C318.2 3 320.5 13 320.5 13s11.4-1.7 17.3 6 4.7 16.9-5.8 24.8c-9.2 7-31.8 4.5-30.5 9.9 1 3.8 31.8-10.5 41.7-4.1 6 3.9 9.5 10.1 6.4 19.8-3.1 9.7-10.3 10.1-11.1 12.4s2.5 12.4-7.8 16.9c-7.1 3.1-13.9 1.4-19.8-7-6.3-9-4.7-28.3-10.5-26.6-1.8.5 5.4 22.3 9.7 28.5 4.3 6.2 15.1 16.1 14.4 18.4-.4 1.5-3.6 1.8-5.8 2zM34.7 19.1H20.5v-4.8c0-1.1-.2-1.9-.7-2.5-.4-.6-1.1-.9-1.9-.9-.5 0-.9.1-1.3.4-.4.3-.7.6-.8.9-.2.4-.3.8-.4 1.3-.1.5-.1 1.2-.1 2.2V34c0 2 .3 3.4.6 4.1.4.7 1.1 1.1 2.1 1.1s1.6-.3 2-.9c.3-.6.5-1.8.5-3.5V29h14.2v15.5c-1.3.9-2.5 1.6-3.8 2.3s-2.6 1.1-3.9 1.5c-1.3.4-2.7.7-4.2.8-1.5.2-3.1.3-5 .3-5.9 0-10.3-1.2-13-3.5-2.8-2.3-4.1-6-4.1-11V15.3c0-2.8.4-5.1 1.2-6.9.7-1.7 1.9-3.2 3.6-4.4C8.1 2 12.2.9 17.6.9c3.4 0 6.5.4 9.3 1.2 2.8.9 5.4 2.2 7.8 3.9v13.1zM39.8 40.2c.8-.4 1.3-.8 1.5-1.4.2-.6.4-1.6.4-3V14.5c0-1.5-.1-2.5-.4-3.1-.2-.6-.7-1-1.5-1.4V1.8h18.6V10c-.9.3-1.5.8-1.8 1.4-.3.6-.5 1.6-.5 3.1v23.9h.5c1.6 0 2.7-.3 3.3-.9.6-.5.9-1.5.9-3V25.8h12.8v22.5H39.8v-8.1zM78.3 17.9v-2.6c0-2.8.4-5.1 1.2-6.9.7-1.7 1.9-3.2 3.6-4.4 1.4-1.1 3.2-1.9 5.2-2.3 2-.5 4.5-.7 7.5-.7 3.3 0 6 .3 8.1.9 2.1.6 3.9 1.6 5.4 2.9 1.4 1.2 2.3 2.6 2.9 4.3.6 1.7.9 3.7.9 6.3V35c0 2.8-.4 5.1-1.2 6.9-.7 1.7-1.9 3.2-3.5 4.5-1.5 1.1-3.2 1.9-5.2 2.3-2 .5-4.5.7-7.5.7-3.3 0-6-.3-8.2-.9-2.1-.6-3.9-1.6-5.4-2.9-1.4-1.2-2.3-2.6-2.9-4.3-.6-1.7-.9-3.8-.9-6.3V17.9zm20.2-.9v-.9c0-1 0-1.8-.1-2.2 0-.5-.1-.9-.2-1.3-.2-.5-.5-.9-.9-1.2-.4-.3-.9-.4-1.5-.4s-1.1.1-1.5.4c-.4.3-.8.7-.9 1.2-.1.4-.2.8-.3 1.3 0 .5-.1 1.2-.1 2.2v18.2c0 1 0 1.7.1 2.2 0 .5.1.9.3 1.3.2.5.5.9.9 1.2.4.3.9.5 1.5.5s1.1-.2 1.5-.5c.4-.3.8-.7.9-1.2.1-.4.2-.8.2-1.3s.1-1.2.1-2.2V17zM153.5 10c-.5.3-.9.8-1.2 1.5-.3.7-.6 1.9-1 3.7l-6.2 33.2h-19.8l-6.7-34.3c-.2-1.1-.5-1.9-.8-2.5-.3-.5-.8-1.1-1.5-1.6V1.8h18.1V10c-.9.6-1.3 1.3-1.3 2.2v.6c0 .2 0 .5.1.7l.1.6 2 12.4c.2 1.1.3 2.2.5 3.2.1 1 .2 2.1.4 3.4l.1.9h.1v-.6-.3l.2-2.1c0-.7.1-1.4.2-2.4.1-.9.2-1.7.3-2.2l2-12.4.1-.6c0-.3.1-.5.1-.7v-.5c0-1.1-.6-1.9-1.8-2.3V1.8h15.9V10zM156.7 40.2c.8-.4 1.3-.9 1.5-1.5.2-.6.4-1.8.4-3.6V15.2l-.1-1.5c0-1.2-.1-2-.4-2.4-.2-.5-.7-.9-1.5-1.3V1.8h35.1v15.6h-13.5v-1.1c0-1.6-.3-2.8-.9-3.5-.6-.7-1.6-1.1-3-1.1H173v8h9.2v9.2H173v9.5h.6c.9 0 1.7-.1 2.3-.2.6-.1 1.1-.4 1.4-.8.4-.4.6-.9.7-1.5.1-.6.2-1.5.2-2.5v-2.1h13.5v17.1h-35.1v-8.2zM196.7 40.2c.8-.4 1.3-.8 1.5-1.4.2-.6.4-1.6.4-3V14.5c0-1.5-.1-2.5-.4-3.1-.2-.6-.7-1-1.5-1.4V1.8h21.8c2.5 0 4.6.2 6.1.5 1.6.3 2.9.8 4.1 1.6 3.3 2.1 4.9 5.6 4.9 10.5 0 5.7-2.3 9.3-7 10.8 1.2.3 2.1.7 2.9 1.1.8.4 1.4.9 1.9 1.5s.8 1.3 1 2.1.3 1.8.3 3V35.3c0 1.6.1 2.8.3 3.4.2.7.7 1.1 1.5 1.4v8.3h-15.7c-.3-1.4-.5-2.8-.7-4.2-.1-1.3-.2-2.9-.2-4.7v-3-.7-.5c0-1.4-.2-2.5-.5-3.3-.3-.7-.8-1.2-1.6-1.6-.3-.2-.7-.3-1-.3h-2v5.5c0 1.4.1 2.4.3 3 .2.5.7 1 1.5 1.4v8.3h-18.2v-8.1zM213.1 21h1.8c1.4 0 2.4-.4 3-1.1.5-.7.8-1.9.8-3.7 0-1.9-.3-3.1-.9-3.7-.6-.6-1.9-.9-3.9-.9h-.8V21zM0 101.1c.9-.4 1.5-1 1.8-1.6.3-.7.4-1.8.4-3.5V70.9c0-1.8-.1-3-.4-3.6-.3-.7-.9-1.2-1.8-1.6V56h24.8c3.6.1 6.4.4 8.5.9 2 .6 3.8 1.6 5.3 3.1 2.8 2.7 4.2 6.7 4.2 11.8v23.6c-.1 5.5-1.8 9.6-5.1 12.3-1.4 1.1-3.1 1.9-5.1 2.4-1.9.5-4.5.7-7.8.7H0v-9.7zm19.7-2.3h.9c1.1 0 2-.1 2.7-.2.7-.1 1.2-.4 1.6-.9.4-.4.6-1.1.7-1.9.1-.8.2-1.8.2-3.1V72.2c0-1.6-.3-2.8-1-3.5-.7-.7-1.9-1-3.7-1h-1.9v31.1h.5zM49 101.1c.9-.4 1.5-1 1.8-1.8.3-.7.4-2.2.4-4.2V71.7l-.1-1.7c0-1.4-.1-2.3-.4-2.9-.3-.5-.9-1-1.7-1.5v-9.7h41.2v18.3H74.3v-1.1c0-1.9-.3-3.3-1-4.1-.7-.8-1.9-1.2-3.5-1.2h-1.6v9.4h10.9V88H68.2v11.2h.6c1.1 0 2-.1 2.7-.2.7-.2 1.3-.5 1.7-.9.4-.4.7-1 .8-1.8.1-.7.2-1.7.2-2.9v-2.5h15.9V111H49v-9.9zM136.7 76.3H120v-5.6c0-1.3-.3-2.2-.8-2.9-.5-.7-1.3-1-2.3-1-.5 0-1 .2-1.5.5-.4.3-.8.7-1 1.1-.2.4-.4.9-.5 1.5-.1.5-.1 1.4-.1 2.6V94c.1 2.4.3 4 .7 4.8.4.9 1.3 1.3 2.5 1.3s1.9-.4 2.3-1.1c.4-.7.6-2.1.6-4.1v-6.8h16.7v18.3c-1.5 1-3 1.9-4.4 2.7-1.5.7-3 1.3-4.6 1.8-1.6.4-3.2.8-5 1-1.8.2-3.7.3-5.8.3-7 0-12.1-1.4-15.3-4.1-3.2-2.7-4.9-7-4.9-12.9v-23c.1-3.3.5-6 1.4-8.1.8-2 2.3-3.8 4.2-5.2 3.1-2.4 7.9-3.6 14.2-3.6 4 0 7.7.5 11 1.4 3.3 1 6.4 2.5 9.2 4.6v15zM142.7 101.1c.9-.4 1.5-1 1.8-1.6.3-.7.4-1.8.4-3.5V70.9c0-1.8-.1-3-.4-3.6-.3-.7-.9-1.2-1.8-1.6V56h21.4v9.7c-.9.4-1.5 1-1.8 1.7-.2.7-.4 1.9-.4 3.6V77.9l3.7-6.7.3-.5c.5-.9.9-1.6 1.2-2.2.3-.6.5-1.1.7-1.6.2-.5.3-1 .3-1.5.1-.5.1-1.2.1-1.9V56h19.3v9.7c-.7.4-1.1.8-1.4 1.1-.2.3-.6.8-1.2 1.6l-.8 1.3-6.8 11.2 7.7 15.2c.8 1.6 1.4 2.7 1.9 3.4.5.7 1 1.2 1.6 1.4v9.9h-20.2v-6.6c0-1.5-.1-2.8-.4-3.8-.2-1-.7-2.2-1.4-3.6l-.4-.7-4-8.2v8c0 .9 0 1.6.1 2.1s.2 1 .3 1.4c.2.4.4.7.7.9.3.2.6.5 1.1.7v9.7h-21.4v-9.6zM232.9 74.2h-16v-.6c0-.9 0-1.7-.1-2.4s-.1-1.2-.2-1.7c-.2-.9-.5-1.6-1.1-2.1-.6-.5-1.3-.8-2.2-.8-1 0-1.9.3-2.4 1s-.9 1.7-.9 2.9c0 .7.1 1.2.2 1.7.2.5.5.9.9 1.3s1 .7 1.8 1.1c.8.3 1.8.7 3 1l4.9 1.4c2.6.8 4.8 1.6 6.6 2.5 1.8.9 3.2 2 4.2 3.3 1.1 1.3 1.8 2.9 2.3 4.7.4 1.8.7 4 .7 6.4 0 6.2-1.7 10.7-5 13.6-3.3 2.9-8.6 4.3-15.7 4.3-2.1 0-4-.1-5.7-.3-1.7-.2-3.4-.5-5-1s-3.2-1.1-4.7-1.8-3.1-1.6-4.8-2.7V90.7h16.6v4.6c0 .7.1 1.3.2 1.7.2.8.6 1.5 1.2 2.1.6.5 1.4.8 2.2.8 1 0 1.9-.4 2.5-1.3.6-.8.9-2 .9-3.3 0-1.6-.4-3-1.3-3.9-.3-.3-.5-.6-.8-.8-.2-.2-.6-.4-1.1-.6-.5-.2-1.1-.4-1.9-.6-.8-.2-1.9-.5-3.3-.9-1.8-.5-3.2-.9-4.5-1.3-1.2-.4-2.3-.8-3.2-1.1-.9-.4-1.7-.7-2.3-1.1l-1.8-1.2c-1.5-1.3-2.6-2.9-3.3-4.9-.7-1.9-1-4.3-1-7.2 0-6.2 1.6-10.5 4.9-12.9 3.6-2.7 8.7-4 15.2-4 3.8 0 7.3.4 10.4 1.3 3.2.9 6.3 2.4 9.6 4.5v13.6z"/></svg>