<?xml version="1.0" encoding="utf-8"?>
<!-- Generator: Adobe Illustrator 19.1.0, SVG Export Plug-In . SVG Version: 6.00 Build 0)  -->
<svg version="1.1" id="Layer_1" xmlns="http://www.w3.org/2000/svg" xmlns:xlink="http://www.w3.org/1999/xlink" x="0px" y="0px"
	 viewBox="0 0 350.7 114" enable-background="new 0 0 350.7 114" xml:space="preserve">
<path fill="#DCB343" d="M318.7,114c-1.8,0.2-3.5-0.8-4.3-2.4c-2.8-5.4-9.3-18.4-12.3-26.8c-3.9-10.9-5.6-24.5-7.4-22.1
	c-3.6,4.9,4,13.8,5,19.3c1.2,6.4,6.5,21.2-5.8,27.7c-11,5.8-18.2-3.3-20.2-4.8c-1.9-1.6-4.3-7.6-4.3-7.6s-11.6,1.2-17.1-7.4
	s-1.4-21.3,12.2-25.9c13.6-4.7,22.7-4.9,22.7-6.4s-0.4-2.5-4.7-1.4c-4.3,1.2-16.9,7.2-26.6,6.4c-9.7-0.8-16.7-3.3-15.1-17.3
	c1.5-13.6,12.2-15.5,12.2-15.5s-3.1-14.7,10.1-20.6c13.2-5.8,20.8,9.9,21.9,14.5s3.4,25.2,8,25.4c3.3,0.1-5.9-20.4-4.2-33.4
	c1.9-14.3,7.3-17.5,19-14.9C318.2,3,320.5,13,320.5,13s11.4-1.7,17.3,6s4.7,16.9-5.8,24.8c-9.2,7-31.8,4.5-30.5,9.9
	c1,3.8,31.8-10.5,41.7-4.1c6,3.9,9.5,10.1,6.4,19.8c-3.1,9.7-10.3,10.1-11.1,12.4s2.5,12.4-7.8,16.9c-7.1,3.1-13.9,1.4-19.8-7
	c-6.3-9-4.7-28.3-10.5-26.6c-1.8,0.5,5.4,22.3,9.7,28.5c4.3,6.2,15.1,16.1,14.4,18.4C324.1,113.5,320.9,113.8,318.7,114z"/>
<g>
	<g>
		<path fill="#0B834E" d="M34.7,19.1H20.5v-4.8c0-1.1-0.2-1.9-0.7-2.5c-0.4-0.6-1.1-0.9-1.9-0.9c-0.5,0-0.9,0.1-1.3,0.4
			c-0.4,0.3-0.7,0.6-0.8,0.9c-0.2,0.4-0.3,0.8-0.4,1.3c-0.1,0.5-0.1,1.2-0.1,2.2v1v16.3V34c0,2,0.3,3.4,0.6,4.1
			c0.4,0.7,1.1,1.1,2.1,1.1c1,0,1.6-0.3,2-0.9c0.3-0.6,0.5-1.8,0.5-3.5v-5.8h14.2v15.5c-1.3,0.9-2.5,1.6-3.8,2.3s-2.6,1.1-3.9,1.5
			c-1.3,0.4-2.7,0.7-4.2,0.8c-1.5,0.2-3.1,0.3-5,0.3c-5.9,0-10.3-1.2-13-3.5c-2.8-2.3-4.1-6-4.1-11v-2.6V17.9v-2.6
			c0-2.8,0.4-5.1,1.2-6.9C2.6,6.7,3.8,5.2,5.5,4C8.1,2,12.2,0.9,17.6,0.9c3.4,0,6.5,0.4,9.3,1.2C29.7,3,32.3,4.3,34.7,6V19.1z"/>
	</g>
	<g>
		<path fill="#0B834E" d="M39.8,40.2c0.8-0.4,1.3-0.8,1.5-1.4c0.2-0.6,0.4-1.6,0.4-3v-0.7V15.2v-0.7c0-1.5-0.1-2.5-0.4-3.1
			c-0.2-0.6-0.7-1-1.5-1.4V1.8h18.6V10c-0.9,0.3-1.5,0.8-1.8,1.4c-0.3,0.6-0.5,1.6-0.5,3.1v0.7v23.2h0.3h0.2c1.6,0,2.7-0.3,3.3-0.9
			c0.6-0.5,0.9-1.5,0.9-3v-0.8v-7.9h12.8v22.5H39.8V40.2z"/>
	</g>
	<g>
		<path fill="#0B834E" d="M78.3,17.9v-2.6c0-2.8,0.4-5.1,1.2-6.9c0.7-1.7,1.9-3.2,3.6-4.4c1.4-1.1,3.2-1.9,5.2-2.3
			c2-0.5,4.5-0.7,7.5-0.7c3.3,0,6,0.3,8.1,0.9c2.1,0.6,3.9,1.6,5.4,2.9c1.4,1.2,2.3,2.6,2.9,4.3c0.6,1.7,0.9,3.7,0.9,6.3v2.6v14.5
			V35c0,2.8-0.4,5.1-1.2,6.9c-0.7,1.7-1.9,3.2-3.5,4.5c-1.5,1.1-3.2,1.9-5.2,2.3c-2,0.5-4.5,0.7-7.5,0.7c-3.3,0-6-0.3-8.2-0.9
			c-2.1-0.6-3.9-1.6-5.4-2.9c-1.4-1.2-2.3-2.6-2.9-4.3c-0.6-1.7-0.9-3.8-0.9-6.3v-2.6V17.9z M98.5,17v-0.9c0-1,0-1.8-0.1-2.2
			c0-0.5-0.1-0.9-0.2-1.3c-0.2-0.5-0.5-0.9-0.9-1.2c-0.4-0.3-0.9-0.4-1.5-0.4s-1.1,0.1-1.5,0.4c-0.4,0.3-0.8,0.7-0.9,1.2
			c-0.1,0.4-0.2,0.8-0.3,1.3c0,0.5-0.1,1.2-0.1,2.2V17v16.3v1c0,1,0,1.7,0.1,2.2c0,0.5,0.1,0.9,0.3,1.3c0.2,0.5,0.5,0.9,0.9,1.2
			c0.4,0.3,0.9,0.5,1.5,0.5s1.1-0.2,1.5-0.5c0.4-0.3,0.8-0.7,0.9-1.2c0.1-0.4,0.2-0.8,0.2-1.3c0-0.5,0.1-1.2,0.1-2.2v-1V17z"/>
	</g>
	<g>
		<path fill="#0B834E" d="M153.5,10c-0.5,0.3-0.9,0.8-1.2,1.5c-0.3,0.7-0.6,1.9-1,3.7l-6.2,33.2h-19.8l-6.7-34.3
			c-0.2-1.1-0.5-1.9-0.8-2.5c-0.3-0.5-0.8-1.1-1.5-1.6V1.8h18.1V10c-0.9,0.6-1.3,1.3-1.3,2.2c0,0.1,0,0.3,0,0.6c0,0.2,0,0.5,0.1,0.7
			l0.1,0.6l2,12.4c0.2,1.1,0.3,2.2,0.5,3.2c0.1,1,0.2,2.1,0.4,3.4l0.1,0.9h0.1c0-0.2,0-0.4,0-0.6c0-0.1,0-0.2,0-0.3l0.2-2.1
			c0-0.7,0.1-1.4,0.2-2.4c0.1-0.9,0.2-1.7,0.3-2.2l2-12.4l0.1-0.6c0-0.3,0.1-0.5,0.1-0.7c0-0.2,0-0.4,0-0.5c0-1.1-0.6-1.9-1.8-2.3
			V1.8h15.9V10z"/>
	</g>
	<g>
		<path fill="#0B834E" d="M156.7,40.2c0.8-0.4,1.3-0.9,1.5-1.5c0.2-0.6,0.4-1.8,0.4-3.6V15.2l-0.1-1.5c0-1.2-0.1-2-0.4-2.4
			c-0.2-0.5-0.7-0.9-1.5-1.3V1.8h35.1v15.6h-13.5v-0.3v-0.8c0-1.6-0.3-2.8-0.9-3.5c-0.6-0.7-1.6-1.1-3-1.1h-0.6h-0.7v8h9.2v9.2h-9.2
			v9.5h0.3h0.3c0.9,0,1.7-0.1,2.3-0.2c0.6-0.1,1.1-0.4,1.4-0.8c0.4-0.4,0.6-0.9,0.7-1.5c0.1-0.6,0.2-1.5,0.2-2.5v-1.1v-1h13.5v17.1
			h-35.1V40.2z"/>
	</g>
	<g>
		<path fill="#0B834E" d="M196.7,40.2c0.8-0.4,1.3-0.8,1.5-1.4c0.2-0.6,0.4-1.6,0.4-3v-0.7V15.2v-0.7c0-1.5-0.1-2.5-0.4-3.1
			c-0.2-0.6-0.7-1-1.5-1.4V1.8h20.2h1.6c2.5,0,4.6,0.2,6.1,0.5c1.6,0.3,2.9,0.8,4.1,1.6c3.3,2.1,4.9,5.6,4.9,10.5
			c0,5.7-2.3,9.3-7,10.8c1.2,0.3,2.1,0.7,2.9,1.1c0.8,0.4,1.4,0.9,1.9,1.5c0.5,0.6,0.8,1.3,1,2.1s0.3,1.8,0.3,3v1.3v1.1
			c0,1.6,0.1,2.8,0.3,3.4c0.2,0.7,0.7,1.1,1.5,1.4v8.3h-15.7c-0.3-1.4-0.5-2.8-0.7-4.2c-0.1-1.3-0.2-2.9-0.2-4.7v-1.8v-0.6v-0.6
			c0-0.2,0-0.5,0-0.7c0-0.2,0-0.4,0-0.5c0-1.4-0.2-2.5-0.5-3.3c-0.3-0.7-0.8-1.2-1.6-1.6c-0.3-0.2-0.7-0.3-1-0.3c-0.4,0-1,0-2,0v4.8
			v0.7c0,1.4,0.1,2.4,0.3,3c0.2,0.5,0.7,1,1.5,1.4v8.3h-18.2V40.2z M213.1,21h0.8h1c1.4,0,2.4-0.4,3-1.1c0.5-0.7,0.8-1.9,0.8-3.7
			c0-1.9-0.3-3.1-0.9-3.7c-0.6-0.6-1.9-0.9-3.9-0.9h-0.8V21z"/>
	</g>
	<g>
		<path fill="#0B834E" d="M0,101.1c0.9-0.4,1.5-1,1.8-1.6c0.3-0.7,0.4-1.8,0.4-3.5v-0.8V71.7v-0.8c0-1.8-0.1-3-0.4-3.6
			c-0.3-0.7-0.9-1.2-1.8-1.6v-9.7h23h1.8c3.6,0.1,6.4,0.4,8.5,0.9c2,0.6,3.8,1.6,5.3,3.1c2.8,2.7,4.2,6.7,4.2,11.8v2.1v19.7v1.8
			c-0.1,5.5-1.8,9.6-5.1,12.3c-1.4,1.1-3.1,1.9-5.1,2.4c-1.9,0.5-4.5,0.7-7.8,0.7H23H0V101.1z M19.7,98.8h0.9c1.1,0,2-0.1,2.7-0.2
			c0.7-0.1,1.2-0.4,1.6-0.9c0.4-0.4,0.6-1.1,0.7-1.9c0.1-0.8,0.2-1.8,0.2-3.1V73.5v-1.3c0-1.6-0.3-2.8-1-3.5c-0.7-0.7-1.9-1-3.7-1
			h-1.1h-0.2h-0.6v31.1H19.7z"/>
	</g>
	<g>
		<path fill="#0B834E" d="M49,101.1c0.9-0.4,1.5-1,1.8-1.8c0.3-0.7,0.4-2.2,0.4-4.2V71.7L51.1,70c0-1.4-0.1-2.3-0.4-2.9
			c-0.3-0.5-0.9-1-1.7-1.5v-9.7h41.2v18.3H74.3V74v-0.9c0-1.9-0.3-3.3-1-4.1c-0.7-0.8-1.9-1.2-3.5-1.2H69h-0.8v9.4h10.9v10.8H68.2
			v11.2h0.3h0.3c1.1,0,2-0.1,2.7-0.2c0.7-0.2,1.3-0.5,1.7-0.9c0.4-0.4,0.7-1,0.8-1.8c0.1-0.7,0.2-1.7,0.2-2.9v-1.3v-1.2h15.9v20.1
			H49V101.1z"/>
	</g>
	<g>
		<path fill="#0B834E" d="M136.7,76.3H120v-5.6c0-1.3-0.3-2.2-0.8-2.9c-0.5-0.7-1.3-1-2.3-1c-0.5,0-1,0.2-1.5,0.5
			c-0.4,0.3-0.8,0.7-1,1.1c-0.2,0.4-0.4,0.9-0.5,1.5c-0.1,0.5-0.1,1.4-0.1,2.6v1.2v19.2v1.1c0.1,2.4,0.3,4,0.7,4.8
			c0.4,0.9,1.3,1.3,2.5,1.3c1.2,0,1.9-0.4,2.3-1.1c0.4-0.7,0.6-2.1,0.6-4.1v-6.8h16.7v18.3c-1.5,1-3,1.9-4.4,2.7
			c-1.5,0.7-3,1.3-4.6,1.8c-1.6,0.4-3.2,0.8-5,1c-1.8,0.2-3.7,0.3-5.8,0.3c-7,0-12.1-1.4-15.3-4.1c-3.2-2.7-4.9-7-4.9-12.9v-3v-17
			v-3c0.1-3.3,0.5-6,1.4-8.1c0.8-2,2.3-3.8,4.2-5.2c3.1-2.4,7.9-3.6,14.2-3.6c4,0,7.7,0.5,11,1.4c3.3,1,6.4,2.5,9.2,4.6V76.3z"/>
	</g>
	<g>
		<path fill="#0B834E" d="M142.7,101.1c0.9-0.4,1.5-1,1.8-1.6c0.3-0.7,0.4-1.8,0.4-3.5v-0.8V71.7v-0.8c0-1.8-0.1-3-0.4-3.6
			c-0.3-0.7-0.9-1.2-1.8-1.6v-9.7h21.4v9.7c-0.9,0.4-1.5,1-1.8,1.7c-0.2,0.7-0.4,1.9-0.4,3.6v0.8v6.1l3.7-6.7l0.3-0.5
			c0.5-0.9,0.9-1.6,1.2-2.2c0.3-0.6,0.5-1.1,0.7-1.6c0.2-0.5,0.3-1,0.3-1.5c0.1-0.5,0.1-1.2,0.1-1.9v-1.2v-6.3h19.3v9.7
			c-0.7,0.4-1.1,0.8-1.4,1.1c-0.2,0.3-0.6,0.8-1.2,1.6l-0.8,1.3l-6.8,11.2l7.7,15.2c0.8,1.6,1.4,2.7,1.9,3.4c0.5,0.7,1,1.2,1.6,1.4
			v9.9h-20.2v-4v-1.1v-1.5c0-1.5-0.1-2.8-0.4-3.8c-0.2-1-0.7-2.2-1.4-3.6l-0.4-0.7l-4-8.2v7.2v0.8c0,0.9,0,1.6,0.1,2.1
			c0.1,0.5,0.2,1,0.3,1.4c0.2,0.4,0.4,0.7,0.7,0.9c0.3,0.2,0.6,0.5,1.1,0.7v9.7h-21.4V101.1z"/>
	</g>
	<g>
		<path fill="#0B834E" d="M232.9,74.2h-16v-0.6c0-0.9,0-1.7-0.1-2.4c-0.1-0.7-0.1-1.2-0.2-1.7c-0.2-0.9-0.5-1.6-1.1-2.1
			c-0.6-0.5-1.3-0.8-2.2-0.8c-1,0-1.9,0.3-2.4,1s-0.9,1.7-0.9,2.9c0,0.7,0.1,1.2,0.2,1.7c0.2,0.5,0.5,0.9,0.9,1.3
			c0.4,0.4,1,0.7,1.8,1.1c0.8,0.3,1.8,0.7,3,1l4.9,1.4c2.6,0.8,4.8,1.6,6.6,2.5c1.8,0.9,3.2,2,4.2,3.3c1.1,1.3,1.8,2.9,2.3,4.7
			c0.4,1.8,0.7,4,0.7,6.4c0,6.2-1.7,10.7-5,13.6c-3.3,2.9-8.6,4.3-15.7,4.3c-2.1,0-4-0.1-5.7-0.3c-1.7-0.2-3.4-0.5-5-1
			c-1.6-0.5-3.2-1.1-4.7-1.8c-1.5-0.7-3.1-1.6-4.8-2.7V90.7h16.6v1.5c0,1.4,0,2.4,0,3.1c0,0.7,0.1,1.3,0.2,1.7
			c0.2,0.8,0.6,1.5,1.2,2.1c0.6,0.5,1.4,0.8,2.2,0.8c1,0,1.9-0.4,2.5-1.3c0.6-0.8,0.9-2,0.9-3.3c0-1.6-0.4-3-1.3-3.9
			c-0.3-0.3-0.5-0.6-0.8-0.8c-0.2-0.2-0.6-0.4-1.1-0.6c-0.5-0.2-1.1-0.4-1.9-0.6c-0.8-0.2-1.9-0.5-3.3-0.9c-1.8-0.5-3.2-0.9-4.5-1.3
			c-1.2-0.4-2.3-0.8-3.2-1.1c-0.9-0.4-1.7-0.7-2.3-1.1c-0.6-0.4-1.2-0.8-1.8-1.2c-1.5-1.3-2.6-2.9-3.3-4.9c-0.7-1.9-1-4.3-1-7.2
			c0-6.2,1.6-10.5,4.9-12.9c3.6-2.7,8.7-4,15.2-4c3.8,0,7.3,0.4,10.4,1.3c3.2,0.9,6.3,2.4,9.6,4.5V74.2z"/>
	</g>
</g>
</svg>
